# xmcd
#
# Track frame offsets: 
#        150
#        12941
#        29096
#        40016
#        60754
#        78018
#        93712
#        111228
#        123020
#        137701
#        149844
#        171702
#
# Disc length: 2530 seconds
#
# Revision: 0
# Processed by: cddbd v1.5.2PL0 Copyright (c) Steve Scherf et al.
# Submitted via: ExactAudioCopy v0.95b4
#
DISCID=a309e00c
DTITLE=BOYS IN CONCERT - IMPULS
DYEAR=2010
DGENRE=Alternative
TTITLE0=BUESENOEFFNER
TTITLE1=IM AUGUST
TTITLE2=PROBIER'S MAL MIT GEMUETLICHKEIT
TTITLE3=AN DICH
TTITLE4=OTHERSIDE
TTITLE5=DIE DEVISE
TTITLE6=CIRCLE OF LIVE
TTITLE7=WOCHENEND UND SONNENSCHEIN
TTITLE8=NIEMAND VERMISST UNS
TTITLE9=ROOM IN MY HEAD
TTITLE10=IMPULS
TTITLE11=1/2 LOVESONG
EXTD=
EXTT0=
EXTT1=
EXTT2=
EXTT3=
EXTT4=
EXTT5=
EXTT6=
EXTT7=
EXTT8=
EXTT9=
EXTT10=
EXTT11=
PLAYORDER=
